<svg id="图层_1" data-name="图层 1" xmlns="http://www.w3.org/2000/svg" viewBox="0 0 1000 1000"><defs><style>.cls-1{fill:#f21919;stroke:#000;stroke-miterlimit:10;}</style></defs><title>skill&amp;amp;equ</title><path class="cls-1" d="M272,823.62C98.42,700.39,48.07,473,159.72,316.84s343.67-183,517.21-59.79c124,88,159.93,250.42,80.18,362S511.63,749.77,387.67,661.75c-74.38-52.82-96-150.25-48.11-217.2s147.29-78.44,221.67-25.62l-6.3-4.47c24.83,17.63,32,50.05,16,72.4S521.91,513,497.08,495.4l6.29,4.47c-24.83-17.64-57.91-13.81-73.88,8.54s-8.8,54.76,16,72.4c74.38,52.81,173.81,41.32,221.66-25.62s26.27-164.38-48.1-217.2c-124-88-289.69-68.87-369.44,42.7s-43.78,274,80.17,362C503.36,865.92,735.38,839.1,847,682.9s61.3-383.55-112.24-506.79"/></svg>