<svg id="图层_1" data-name="图层 1" xmlns="http://www.w3.org/2000/svg" viewBox="0 0 1000 1000"><defs><style>.cls-1{fill:#06ff06;stroke:#000;stroke-miterlimit:10;}</style></defs><title>skill&amp;amp;equ</title><path class="cls-1" d="M143.61,237.25S528.72,831.73,398,785,143.61,237.25,143.61,237.25Z"/><path class="cls-1" d="M159.27,224.41s537,633.17,357.42,608.5S159.27,224.41,159.27,224.41Z"/><path class="cls-1" d="M183.12,156.38S798.19,888.74,603.32,854.7,183.12,156.38,183.12,156.38Z"/><path class="cls-1" d="M185.77,164S908.51,868.38,709.66,848.85,185.77,164,185.77,164Z"/><path class="cls-1" d="M210.59,147.84S1017,818.19,798.59,822,210.59,147.84,210.59,147.84Z"/><ellipse class="cls-1" cx="213.89" cy="238.99" rx="103.87" ry="113.97"/><path class="cls-1" d="M824.87,247.52S424.54,829.77,556.4,787.15,824.87,247.52,824.87,247.52Z"/><path class="cls-1" d="M809.55,234.2s-553.2,616.19-373,597.13S809.55,234.2,809.55,234.2Z"/><path class="cls-1" d="M787.47,165.45s-633.76,712.92-438.09,685S787.47,165.45,787.47,165.45Z"/><path class="cls-1" d="M784.63,173S44,854.58,243.23,841.26,784.63,173,784.63,173Z"/><path class="cls-1" d="M760.23,156.07S-63.15,801,155,811.65,760.23,156.07,760.23,156.07Z"/><ellipse class="cls-1" cx="754.58" cy="247.07" rx="103.87" ry="113.97"/></svg>